#!OML:ASF H:\Terrain\Patient Classification 1\Terrain2\Thursday\justin.ASF
:FULLY-SPECIFIED
:DEGREES
1442
root -0.44433 17.7741 22.5017 540.862 -1.12379 186.98
lowerback 7.68249 -0.389397 5.58002
upperback 2.22664 -0.440457 4.42357
thorax -1.98912 -0.426299 1.49279
lowerneck -14.3874 -3.54104 -8.60277
upperneck 37.4062 0.520059 2.56057
head 15.6904 0.65526 3.08264
rclavicle -1.12313e-014 1.98785e-014
rhumerus -33.6786 -9.70733 -79.4517
rradius 27.4248
rwrist -10.7125
rhand -19.7115 12.6787
rfingers 7.12502
rthumb 6.61836 -17.1979
lclavicle -1.12313e-014 1.98785e-014
lhumerus -32.2401 3.73888 83.9469
lradius 38.7641
lwrist 0.945024
lhand -14.9064 20.5072
lfingers 7.12502
lthumb 11.255 50.1853
rfemur -3.31802 -7.44602 30.5905
rtibia 21.5168
rfoot -17.2811 1.0297
rtoes 17.8825
lfemur -22.1679 8.47627 -8.6573
ltibia 59.9977
lfoot -11.5332 5.87475
ltoes 0.776454
1443
root -0.436582 17.7888 22.4852 540.871 -1.11924 187.59
lowerback 7.7969 -0.385784 6.22543
upperback 2.20203 -0.407129 4.6265
thorax -2.07548 -0.429332 1.34457
lowerneck -14.564 -3.56704 -8.26107
upperneck 37.4892 0.580719 2.09122
head 15.7729 0.662608 2.83577
rclavicle -3.97569e-015 4.45278e-014
rhumerus -33.7652 -9.17207 -79.7607
rradius 27.795
rwrist -12.4739
rhand -20.536 11.8012
rfingers 7.12502
rthumb 5.82233 -18.0988
lclavicle -3.97569e-015 4.45278e-014
lhumerus -32.2332 3.29186 84.2888
lradius 38.7418
lwrist 0.575239
lhand -14.4514 21.483
lfingers 7.12502
lthumb 11.6938 51.1366
rfemur -2.70089 -7.44283 31.2926
rtibia 20.3111
rfoot -16.6849 0.78961
rtoes 17.4413
lfemur -23.8033 8.65656 -7.85574
ltibia 62.9537
lfoot -11.8907 5.11977
ltoes -1.46945
1444
root -0.42747 17.8011 22.4752 540.841 -1.20356 188.072
lowerback 8.02382 -0.424287 6.74052
upperback 2.20528 -0.429774 4.81483
thorax -2.1961 -0.46118 1.26144
lowerneck -14.9663 -3.61398 -8.13068
upperneck 37.7624 0.640428 1.85066
head 16.0086 0.668537 2.7361
rclavicle -1.33186e-014 -4.37326e-014
rhumerus -33.7846 -8.95801 -79.7743
rradius 27.9753
rwrist -12.9205
rhand -20.8161 10.9931
rfingers 7.12502
rthumb 5.55194 -18.9142
lclavicle -1.33186e-014 -4.37326e-014
lhumerus -32.1485 2.99515 84.6746
lradius 38.5711
lwrist 1.04579
lhand -14.0979 20.7725
lfingers 7.12502
lthumb 12.0347 50.4064
rfemur -2.05559 -7.44163 31.8723
rtibia 19.0488
rfoot -15.9053 1.17066
rtoes 18.3015
lfemur -25.4529 8.82453 -7.21034
ltibia 65.9326
lfoot -12.5513 4.55089
ltoes -2.08041
1445
root -0.418926 17.8092 22.4648 540.7 -1.30736 188.315
lowerback 8.44289 -0.407686 7.06989
upperback 2.20741 -0.357485 4.8873
thorax -2.4232 -0.441491 1.15465
lowerneck -15.1242 -3.68404 -8.0745
upperneck 37.7759 0.503918 1.87174
head 16.0615 0.615796 2.71257
rclavicle 1.78906e-015 -5.96354e-014
rhumerus -33.915 -9.34207 -79.5599
rradius 28.0413
rwrist -12.4251
rhand -20.801 10.6919
rfingers 7.12502
rthumb 5.56645 -19.215
lclavicle 1.78906e-015 -5.96354e-014
lhumerus -32.0774 2.5819 85.0875
lradius 38.5109
lwrist 1.30501
lhand -14.8054 19.2609
lfingers 7.12502
lthumb 11.3525 48.9336
rfemur -1.29402 -7.42751 32.1696
rtibia 17.8406
rfoot -15.3607 1.37866
rtoes 19.1056
lfemur -26.92 8.84054 -6.85147
ltibia 68.904
lfoot -13.1214 3.96921
ltoes -0.00770367
1446
root -0.412411 17.8248 22.4478 540.536 -1.24132 188.293
lowerback 8.92163 -0.347592 7.09781
upperback 2.17525 -0.227914 4.91163
thorax -2.71829 -0.388273 1.15913
lowerneck -15.1261 -3.72753 -8.02001
upperneck 37.763 0.453425 1.78709
head 16.0593 0.592057 2.6569
rclavicle 5.06901e-015 -9.54166e-015
rhumerus -34.0175 -9.79245 -79.2772
rradius 27.8696
rwrist -11.8774
rhand -20.767 10.9439
rfingers 7.12502
rthumb 5.59935 -18.9621
lclavicle 5.06901e-015 -9.54166e-015
lhumerus -32.1501 2.33266 85.4285
lradius 38.5441
lwrist 0.980436
lhand -14.833 19.7167
lfingers 7.12502
lthumb 11.3258 49.3909
rfemur -0.486287 -7.35484 32.142
rtibia 16.7564
rfoot -15.1083 1.16555
rtoes 18.5265
lfemur -28.2895 9.06511 -6.8018
ltibia 71.8224
lfoot -13.5956 3.1208
ltoes 2.44795
1447
root -0.407409 17.8446 22.4303 540.385 -1.14888 188.199
lowerback 9.29247 -0.324559 7.11015
upperback 2.20553 -0.164402 4.88141
thorax -2.89039 -0.362793 1.11891
lowerneck -15.0729 -3.78674 -8.20247
upperneck 37.7696 0.347968 1.97692
head 16.058 0.54911 2.75346
rclavicle -2.48481e-015 -2.14687e-014
rhumerus -33.8845 -10.0054 -79.1941
rradius 27.5178
rwrist -11.7385
rhand -20.5777 12.1038
rfingers 7.12502
rthumb 5.78211 -17.7973
lclavicle -2.48481e-015 -2.14687e-014
lhumerus -32.1346 2.17139 85.6272
lradius 38.437
lwrist 0.805778
lhand -14.1818 20.9355
lfingers 7.12502
lthumb 11.9538 50.5742
rfemur 0.298855 -7.26228 32.037
rtibia 15.7025
rfoot -14.6701 1.04378
rtoes 17.9771
lfemur -29.7276 9.34961 -6.86201
ltibia 74.6757
lfoot -14.2061 2.44678
ltoes 3.27916
1448
root -0.403035 17.8643 22.4133 540.266 -1.13309 188.052
lowerback 9.44561 -0.310333 7.0513
upperback 2.32138 -0.151127 4.84105
thorax -2.85366 -0.355968 1.10838
lowerneck -14.5779 -3.75045 -8.32224
upperneck 37.0957 0.182821 2.1085
head 15.6057 0.464267 2.76146
rclavicle 9.54166e-015 1.60618e-013
rhumerus -33.7315 -10.0414 -79.2076
rradius 27.3954
rwrist -11.7973
rhand -20.0169 13.5928
rfingers 7.12502
rthumb 6.32348 -16.2928
lclavicle 9.54166e-015 1.60618e-013
lhumerus -31.983 2.04074 85.7721
lradius 38.2757
lwrist 0.499151
lhand -13.5651 20.9245
lfingers 7.12502
lthumb 12.5485 50.5277
rfemur 1.17925 -7.0999 31.8945
rtibia 14.3702
rfoot -14.0119 0.895472
rtoes 17.4779
lfemur -31.2642 9.51074 -7.05557
ltibia 77.4936
lfoot -14.7095 2.05213
ltoes 2.94703
1449
root -0.399102 17.8838 22.3952 540.254 -1.18489 188.016
lowerback 9.52409 -0.235789 7.14875
upperback 2.42824 -0.0509081 4.79693
thorax -2.78111 -0.306531 0.99597
lowerneck -14.5559 -3.73054 -8.12984
upperneck 36.6363 0.0422934 2.02509
head 15.3764 0.396802 2.6415
rclavicle -8.05078e-015 7.95139e-016
rhumerus -33.6273 -10.3661 -79.1727
rradius 27.4108
rwrist -11.7485
rhand -19.6897 14.693
rfingers 7.12502
rthumb 6.63934 -15.1829
lclavicle -8.05078e-015 7.95139e-016
lhumerus -31.7618 1.66524 85.9966
lradius 38.232
lwrist 0.274825
lhand -13.8273 20.2485
lfingers 7.12502
lthumb 12.2957 49.867
rfemur 2.05488 -6.98999 31.8817
rtibia 12.8053
rfoot -13.3999 0.746787
rtoes 16.9353
lfemur -32.9936 9.75194 -7.17176
ltibia 80.3239
lfoot -15.2218 1.52687
ltoes 1.09282
1450
root -0.398259 17.899 22.3688 540.282 -1.15247 188.341
lowerback 9.66019 -0.197375 7.53437
upperback 2.4154 0.0315502 4.91451
thorax -2.86297 -0.281006 0.898056
lowerneck -14.4123 0.452923 -9.32857
upperneck 36.0843 -1.78026 4.08373
head 15.0634 -2.72376 2.7365
rclavicle 9.93923e-016 -1.43125e-014
rhumerus -33.6794 -10.3433 -79.0929
rradius 27.3624
rwrist -11.6027
rhand -19.9807 15.1652
rfingers 7.12502
rthumb 6.35848 -14.7194
lclavicle 9.93923e-016 -1.43125e-014
lhumerus -31.7433 1.61414 86.2884
lradius 38.133
lwrist 0.0670215
lhand -14.4559 20.1502
lfingers 7.12502
lthumb 11.6895 49.804
rfemur 2.90457 -6.93366 32.2328
rtibia 11.2504
rfoot -12.802 0.740735
rtoes 16.8618
lfemur -34.8235 10.1578 -6.89258
ltibia 83.1525
lfoot -15.7176 0.934728
ltoes -2.0672
1451
root -0.394824 17.9142 22.3381 540.342 -1.03497 188.715
lowerback 9.64999 -0.183495 7.84444
upperback 2.44842 0.0424939 5.13334
thorax -2.81771 -0.292837 0.954653
lowerneck -14.0918 -3.58749 -8.47647
upperneck 35.9015 0.0447775 2.32977
head 14.9113 0.372116 2.79057
rclavicle 6.26172e-015 -3.97569e-015
rhumerus -33.5961 -10.1009 -78.8893
rradius 27.1769
rwrist -10.8288
rhand -19.7769 15.1958
rfingers 7.12502
rthumb 6.55516 -14.6827
lclavicle 6.26172e-015 -3.97569e-015
lhumerus -31.7212 1.93565 86.5841
lradius 37.9564
lwrist -0.0807906
lhand -14.4656 20.6393
lfingers 7.12502
lthumb 11.6801 50.2938
rfemur 3.82055 -6.82261 32.6499
rtibia 9.55061
rfoot -12.0303 0.749687
rtoes 17.058
lfemur -36.667 10.6885 -6.53923
ltibia 85.8833
lfoot -15.8778 0.207461
ltoes -4.0162
1452
root -0.385197 17.9251 22.3167 540.391 -0.968278 188.706
lowerback 9.67376 -0.0682078 7.91307
upperback 2.60178 0.179817 5.09681
thorax -2.66279 -0.22313 0.860447
lowerneck -14.5868 0.354107 -9.25326
upperneck 35.9084 -1.76518 3.86184
head 15.0196 -2.70232 2.63538
rclavicle -5.96354e-015 -3.49861e-014
rhumerus -33.2419 -10.4111 -78.8278
rradius 26.9365
rwrist -10.09
rhand -19.4809 15.2022
rfingers 7.12502
rthumb 6.84094 -14.6673
lclavicle -5.96354e-015 -3.49861e-014
lhumerus -31.4896 1.70062 86.7879
lradius 37.8637
lwrist 0.112616
lhand -14.5114 20.65
lfingers 7.12502
lthumb 11.6359 50.307
rfemur 4.95915 -6.76948 32.6986
rtibia 7.37602
rfoot -11.0618 0.784931
rtoes 17.4181
lfemur -38.43 11.1699 -6.58487
ltibia 88.4167
lfoot -15.9162 -0.898348
ltoes -3.08754
1453
root -0.379455 17.9363 22.2945 540.347 -0.757056 188.545
lowerback 9.87131 0.146168 7.91045
upperback 2.75871 0.47232 4.94353
thorax -2.59378 -0.0725824 0.666593
lowerneck -15.1112 0.182925 -9.1382
upperneck 36.174 -2.05519 4.00179
head 15.2978 -2.78586 2.63089
rclavicle -2.5842e-015 -2.46493e-014
rhumerus -32.9525 -10.9164 -78.8737
rradius 26.7363
rwrist -9.8047
rhand -19.7261 15.304
rfingers 7.12502
rthumb 6.60428 -14.573
lclavicle -2.5842e-015 -2.46493e-014
lhumerus -31.29 1.25524 86.9152
lradius 37.8495
lwrist -0.152069
lhand -14.2515 21.2203
lfingers 7.12502
lthumb 11.8866 50.8629
rfemur 6.40613 -6.59547 32.5448
rtibia 4.81005
rfoot -9.91027 0.853714
rtoes 17.7345
lfemur -40.0037 11.7144 -6.81311
ltibia 90.7262
lfoot -16.1709 -2.27389
ltoes -3.33459
1454
root -0.379448 17.9526 22.2639 540.314 -0.414781 188.568
lowerback 10.0073 0.297345 7.93952
upperback 2.83102 0.66937 4.99971
thorax -2.58319 0.0184095 0.68628
lowerneck -14.9814 0.163119 -9.2527
upperneck 36.002 -2.06872 4.12161
head 15.1876 -2.77612 2.70034
rclavicle -6.36111e-015 -2.62396e-014
rhumerus -32.7722 -11.5393 -78.4583
rradius 26.2534
rwrist -8.30736
rhand -19.5105 15.2669
rfingers 7.12502
rthumb 6.8124 -14.6035
lclavicle -6.36111e-015 -2.62396e-014
lhumerus -31.3498 1.17304 87.1865
lradius 37.824
lwrist -0.0350674
lhand -14.5028 20.8127
lfingers 7.12502
lthumb 11.6442 50.4691
rfemur 8.98113 -6.28821 32.5469
rtibia 1.59028e-015
rfoot -7.5016 0.97449
rtoes 17.557
lfemur -41.5985 12.3398 -6.89059
ltibia 92.9003
lfoot -16.6923 -3.63857
ltoes -6.47586
1455
root -0.379223 17.9653 22.2376 540.436 -0.220962 188.598
lowerback 10.0973 0.358477 7.84784
upperback 2.74484 0.751971 5.16562
thorax -2.72339 0.0484264 0.902093
lowerneck -14.6758 0.208964 -9.32861
upperneck 35.8462 -1.93281 3.92555
head 15.0288 -2.75536 2.65082
rclavicle -1.03368e-014 -6.75868e-014
rhumerus -32.7409 -11.6038 -78.0548
rradius 25.8958
rwrist -7.16718
rhand -19.2767 14.5442
rfingers 7.12502
rthumb 7.0381 -15.3188
lclavicle -1.03368e-014 -6.75868e-014
lhumerus -31.6935 1.19648 87.6061
lradius 37.8003
lwrist 1.05092
lhand -15.5491 18.7483
lfingers 7.12502
lthumb 10.6351 48.4592
rfemur 8.95275 -6.0894 32.5725
rtibia 1.59028e-015
rfoot -7.49769 0.988321
rtoes 17.6077
lfemur -43.5293 12.8243 -7.07816
ltibia 94.9621
lfoot -17.0045 -4.79246
ltoes -8.46456
